<svg xmlns="http://www.w3.org/2000/svg" width="32" height="32" viewBox="0 0 32 32" fill="none">
  <g clip-path="url(#clip0_2242_113)">
    <mask id="mask0_2242_113" style="mask-type:luminance" maskUnits="userSpaceOnUse" x="0" y="0" width="32" height="32">
      <path d="M32 0H0V32H32V0Z" fill="white"/>
    </mask>
    <g mask="url(#mask0_2242_113)">
      <path opacity="0.82" d="M6.14745 26.1538C4.90366 24.3791 4.15696 22.6392 4.1736 21.7091C5.0534 22.0109 6.43421 23.3064 7.678 25.0811C8.92179 26.8557 9.66827 28.5956 9.65186 29.5257C8.77183 29.2238 7.39124 27.9284 6.14745 26.1538Z" fill="#2F54EB"/>
      <path opacity="0.533" d="M14.7275 12.3745C18.8914 8.80804 24.0983 7.39864 27.8709 8.48097C28.7534 12.0394 26.8393 16.7305 22.6754 20.2975C18.5115 23.8644 13.3045 25.2731 9.53195 24.1911C8.64946 20.6329 10.5638 15.9414 14.7275 12.3745Z" fill="#2F54EB"/>
      <path opacity="0.449" d="M17.2738 22.8277C20.4366 23.5583 22.8517 25.44 23.5391 27.4703C22.0308 28.9934 19.0351 29.6252 15.8723 28.8945C12.7096 28.1639 10.2937 26.2821 9.60625 24.2517C11.114 22.7285 14.1103 22.0969 17.2738 22.8277Z" fill="#39D1FF"/>
      <path opacity="0.85" d="M6.03945 12.1542C7.15626 7.05474 10.61 3.04966 14.5302 1.78301C17.6751 4.05621 19.2183 8.77336 18.1014 13.8728C16.9844 18.9723 13.5314 22.9777 9.61073 24.2442C6.46585 21.9709 4.92245 17.2539 6.03945 12.1542Z" fill="#2F54EB"/>
      <path d="M6.03945 12.1542C7.15626 7.05474 10.61 3.04966 14.5302 1.78301C17.6751 4.05621 19.2183 8.77336 18.1014 13.8728C16.9844 18.9723 13.5314 22.9777 9.61073 24.2442C6.46585 21.9709 4.92245 17.2539 6.03945 12.1542Z" fill="#4466ED"/>
      <path d="M14.7275 12.3745C18.8914 8.80804 24.0983 7.39864 27.8709 8.48097C28.7534 12.0394 26.8393 16.7305 22.6754 20.2975C18.5115 23.8644 13.3045 25.2731 9.53195 24.1911C8.64946 20.6329 10.5638 15.9414 14.7275 12.3745Z" fill="#8DA3FF"/>
      <path opacity="0.999" d="M9.51814 24.1335C8.67014 20.5823 10.5865 15.9223 14.7279 12.3744C15.8687 11.395 17.1217 10.5545 18.4607 9.87061C18.4844 11.1107 18.3644 12.3494 18.1031 13.562C16.9881 18.7959 13.5365 22.9074 9.61783 24.2087C9.58433 24.1838 9.5511 24.1588 9.51814 24.1335Z" fill="#2F54EB"/>
      <path opacity="0.449" d="M17.2738 22.8277C18.6555 23.137 19.965 23.7091 21.1307 24.5129C22.3058 25.3362 23.1706 26.382 23.5391 27.4703C22.0307 28.9934 19.0351 29.6252 15.8723 28.8945C12.7095 28.1639 10.2937 26.2821 9.60619 24.2517C11.1139 22.7285 14.1102 22.0969 17.2738 22.8277Z" fill="#39D1FF"/>
    </g>
  </g>
  <defs>
    <clipPath id="clip0_2242_113">
      <rect width="32" height="32" fill="white"/>
    </clipPath>
  </defs>
</svg>