<svg width="48" height="48" viewBox="0 0 48 48" fill="none" xmlns="http://www.w3.org/2000/svg">
<g clip-path="url(#clip0_100_1000)">
<path opacity="0.82" d="M12.99 34.1929C11.6052 32.2316 10.7739 30.3089 10.7924 29.2811C11.7719 29.6146 13.3092 31.0462 14.694 33.0074C16.0787 34.9686 16.9098 36.8913 16.8915 37.9192C15.9118 37.5856 14.3747 36.1541 12.99 34.1929Z" fill="#2F36EB"/>
<path opacity="0.533" d="M22.5427 18.965C27.1784 15.0236 32.9753 13.4661 37.1755 14.6622C38.158 18.5947 36.027 23.7788 31.3912 27.7207C26.7555 31.6626 20.9583 33.2194 16.7583 32.0237C15.7758 28.0915 17.907 22.9068 22.5427 18.965Z" fill="#2F54EB"/>
<path opacity="0.449" d="M25.3773 30.5171C28.8985 31.3245 31.5873 33.4039 32.3527 35.6477C30.6734 37.3309 27.3382 38.029 23.817 37.2216C20.2958 36.4142 17.6062 34.3346 16.8408 32.0908C18.5194 30.4074 21.8553 29.7094 25.3773 30.5171Z" fill="#39D1FF"/>
<path d="M25.3773 30.5171C28.8985 31.3245 31.5873 33.4039 32.3527 35.6477C30.6734 37.3309 27.3382 38.029 23.817 37.2216C20.2958 36.4142 17.6062 34.3346 16.8408 32.0908C18.5194 30.4074 21.8553 29.7094 25.3773 30.5171Z" fill="#39D1FF"/>
<path opacity="0.85" d="M12.8698 18.7216C14.1132 13.0861 17.9583 8.65999 22.3228 7.26021C25.8241 9.77235 27.5422 14.9853 26.2987 20.6208C25.0551 26.2563 21.2108 30.6827 16.8458 32.0824C13.3445 29.5701 11.6262 24.3572 12.8698 18.7216Z" fill="#2F54EB"/>
<path d="M12.8698 18.7216C14.1132 13.0861 17.9583 8.65999 22.3228 7.26021C25.8241 9.77235 27.5422 14.9853 26.2987 20.6208C25.0551 26.2563 21.2108 30.6827 16.8458 32.0824C13.3445 29.5701 11.6262 24.3572 12.8698 18.7216Z" fill="#2F54EB"/>
<path d="M22.5427 18.965C27.1784 15.0236 32.9753 13.4661 37.1755 14.6622C38.158 18.5947 36.027 23.7788 31.3912 27.7207C26.7555 31.6626 20.9583 33.2194 16.7583 32.0237C15.7758 28.0915 17.907 22.9068 22.5427 18.965Z" fill="#8DA3FF"/>
<path d="M16.8721 32.055C18.5643 30.398 21.8765 29.7155 25.3736 30.5166C25.7655 30.6065 26.1469 30.7116 26.5177 30.8321C24.2255 31.8773 21.8828 32.4168 19.7396 32.4168C18.7718 32.4232 17.8075 32.3015 16.8721 32.055Z" fill="#4AA3F0"/>
<path opacity="0.999" d="M16.7429 31.9601C15.7988 28.0356 17.9323 22.8858 22.543 18.965C23.8131 17.8826 25.2081 16.9538 26.6989 16.198C26.7253 17.5685 26.5917 18.9374 26.3007 20.2774C25.0593 26.0614 21.2167 30.6051 16.8539 32.0432C16.8166 32.0157 16.7796 31.988 16.7429 31.9601Z" fill="#2F36EB"/>
</g>
<defs>
<clipPath id="clip0_100_1000">
<rect width="48" height="48" fill="white"/>
</clipPath>
</defs>
</svg>
