<svg xmlns="http://www.w3.org/2000/svg" width="24" height="24" viewBox="0 0 24 24">
  <defs>
    <style>
      .cls-1 {
        fill: none;
      }

      .cls-2 {
        fill: #6f7b8b;
      }
    </style>
  </defs>
  <g id="Heartbeat" transform="translate(-676.388 -646.388)">
    <rect id="矩形_1377" data-name="矩形 1377" class="cls-1" width="24" height="24" transform="translate(676.388 646.388)"/>
    <g id="心跳" transform="translate(677.555 648.759)">
      <path id="路径_1641" data-name="路径 1641" class="cls-2" d="M211.914,456.533l-3.88,6.24-2.328-3.662h-5.173l1.293,1.356,7.63,7.867,7.889-8.274H214.5Z" transform="translate(-198.561 -449.073)"/>
      <path id="路径_1642" data-name="路径 1642" class="cls-2" d="M155.545,223.494a5.135,5.135,0,0,0-7.5,0l-1.681,1.763-1.681-1.763a5.284,5.284,0,0,0-7.63,0,5.571,5.571,0,0,0-.776,6.782h7.113l1.552,2.442,3.88-6.1,3.363,4.612H155.8A5.874,5.874,0,0,0,155.545,223.494Z" transform="translate(-135.467 -221.867)"/>
    </g>
  </g>
</svg>
