<svg width="14" height="14" viewBox="0 0 14 14" fill="none" xmlns="http://www.w3.org/2000/svg">
<path d="M7.16146 0.828857C7.00341 0.828883 6.85184 0.891688 6.74009 1.00346C6.62834 1.11523 6.56556 1.26681 6.56556 1.42486C6.56556 1.58291 6.62834 1.73449 6.74009 1.84626C6.85184 1.95803 7.00343 2.02083 7.16148 2.02086H11.0356C11.1569 2.02086 11.2771 2.04477 11.3893 2.09122C11.5014 2.13767 11.6033 2.20575 11.6891 2.29158C11.775 2.37741 11.8431 2.47931 11.8895 2.59145C11.936 2.70359 11.9599 2.82378 11.9599 2.94516V11.0546C11.9599 11.176 11.936 11.2961 11.8895 11.4083C11.8431 11.5204 11.775 11.6223 11.6891 11.7082C11.6033 11.794 11.5014 11.8621 11.3893 11.9085C11.2771 11.955 11.1569 11.9789 11.0356 11.9789H2.92615C2.41581 11.9789 2.00185 11.5649 2.00185 11.0546V6.84098C2.00186 6.76271 1.98645 6.68521 1.95651 6.6129C1.92656 6.54057 1.88266 6.47486 1.82732 6.41951C1.77197 6.36415 1.70626 6.32024 1.63395 6.29028C1.56163 6.26033 1.48412 6.24491 1.40585 6.24491C1.32757 6.24491 1.25006 6.26033 1.17774 6.29028C1.10543 6.32024 1.03972 6.36415 0.984375 6.41951C0.929031 6.47486 0.885131 6.54057 0.855185 6.6129C0.825242 6.68521 0.809836 6.76274 0.809845 6.841V11.0546C0.809845 11.6159 1.03281 12.1541 1.4297 12.551C1.82658 12.9479 2.36487 13.1709 2.92615 13.1709H11.0356C11.5968 13.1709 12.1351 12.9479 12.532 12.551C12.9289 12.1541 13.1519 11.6159 13.1519 11.0546V2.94516C13.1519 2.38388 12.9289 1.84559 12.532 1.44871C12.1351 1.05182 11.5968 0.828857 11.0356 0.828857H7.16146ZM1.1771 1.56959C1.01916 1.56109 0.86432 1.61569 0.746635 1.72136C0.628949 1.82703 0.558062 1.97513 0.549568 2.13306C0.541073 2.291 0.595667 2.44585 0.70134 2.56353C0.807316 2.68155 0.955592 2.75156 1.11304 2.76004L1.31935 2.77119C2.60918 2.84031 3.83595 3.3511 4.7937 4.21778C5.60227 4.94946 6.17753 5.8972 6.45579 6.9428L5.42022 6.37684L5.41835 6.37586C5.27986 6.30269 5.11813 6.28697 4.96814 6.33211C4.81816 6.37726 4.69197 6.47963 4.61688 6.61709C4.54178 6.75455 4.52382 6.91604 4.56687 7.06664C4.60993 7.21725 4.71053 7.34486 4.84693 7.42185L6.89144 8.53953C7.08522 8.6454 7.31187 8.67407 7.52591 8.61978C7.73994 8.56549 7.92554 8.43224 8.04543 8.24682L9.32209 6.2733C9.40801 6.14055 9.43768 5.97911 9.40458 5.82448C9.37147 5.66984 9.27829 5.53469 9.14553 5.44875C9.01277 5.36281 8.85131 5.33314 8.69668 5.36624C8.54204 5.39935 8.40683 5.4926 8.3209 5.62536L7.62475 6.70214C7.47282 6.10733 7.2418 5.53793 6.93958 5.00864C6.58483 4.38733 6.13198 3.82126 5.59383 3.33418C4.43337 2.28385 2.94687 1.66473 1.38393 1.58074L1.1771 1.56959Z" fill="#2F54EB"/>
</svg>
