<svg xmlns="http://www.w3.org/2000/svg" width="48" height="48" viewBox="0 0 48 48">
  <g id="icon" transform="translate(-294 -224)">
    <circle id="椭圆_147" data-name="椭圆 147" cx="24" cy="24" r="24" transform="translate(294 224)" fill="#2442BF"/>
    <path id="集群" d="M62.7.116a1.149,1.149,0,0,1,1,0L74.7,6.3a1.067,1.067,0,0,1,.5.847V19.52a1.067,1.067,0,0,1-.5.845l-11,6.187a1.144,1.144,0,0,1-1,0l-11-6.187a1.067,1.067,0,0,1-.5-.845V7.148a1.067,1.067,0,0,1,.5-.845Zm.067,1.769L53.24,7.244a.925.925,0,0,0-.433.733V18.691a.929.929,0,0,0,.433.733l9.527,5.357a.989.989,0,0,0,.867,0l9.527-5.359a.924.924,0,0,0,.433-.732V7.974a.924.924,0,0,0-.433-.732L63.633,1.883a1,1,0,0,0-.867,0Zm1.719,20.829V14.182a1.047,1.047,0,0,0-.491-.825L54.547,8.043,62.6,3.511a1.107,1.107,0,0,1,.981,0l8.135,4.575a1.053,1.053,0,0,1,.491.829v9.011a1.042,1.042,0,0,1-.491.827l-7.231,3.963ZM62.92,23.1l-8.227-4.4a1.124,1.124,0,0,1-.524-.887V9.536l8.221,4.893a1.139,1.139,0,0,1,.529.893Z" transform="translate(254.8 234.667)" fill="#fff"/>
  </g>
</svg>
