<svg xmlns="http://www.w3.org/2000/svg" width="24" height="24" viewBox="0 0 24 24">
  <defs>
    <style>
      .cls-1 {
        fill: none;
      }

      .cls-2 {
        fill: #6f7b8b;
      }
    </style>
  </defs>
  <g id="start" transform="translate(-979.119 -451.119)">
    <rect id="矩形_1377" data-name="矩形 1377" class="cls-1" width="24" height="24" transform="translate(979.119 451.119)"/>
    <g id="交付日期" transform="translate(981.667 453.157)">
      <path id="路径_1643" data-name="路径 1643" class="cls-2" d="M290.087,68.321a.475.475,0,0,0,.514-.414V65.114a.521.521,0,0,0-1.02,0V67.9A.461.461,0,0,0,290.087,68.321Zm-8.673,0a.466.466,0,0,0,.506-.414V65.114a.466.466,0,0,0-.506-.414.475.475,0,0,0-.514.414V67.9A.47.47,0,0,0,281.414,68.321Z" transform="translate(-276.299 -64.7)"/>
      <path id="路径_1644" data-name="路径 1644" class="cls-2" d="M93.194,146.522a2.03,2.03,0,0,0-2.127-1.922H89.322v1.436a1.1,1.1,0,0,1-2.2,0V144.6H80.359v1.436a1.1,1.1,0,0,1-2.2,0V144.6H76.436a2.03,2.03,0,0,0-2.127,1.922v1.962H93.2v-1.962ZM74.3,160.821a2.03,2.03,0,0,0,2.127,1.922H91.056a2.03,2.03,0,0,0,2.127-1.922V149.466H74.3Zm5.148-5.683a.8.8,0,0,1,1.108.143l2.274,2.69,4.55-5.389a.81.81,0,0,1,1.1-.12.838.838,0,0,1,.03,1.122l-5.178,6.146a.628.628,0,0,1-.991,0l-2.893-3.407A.894.894,0,0,1,79.448,155.138Z" transform="translate(-74.3 -142.821)"/>
    </g>
  </g>
</svg>
